<svg xmlns="http://www.w3.org/2000/svg" xmlns:se="http://svg-edit.googlecode.com" xmlns:xlink="http://www.w3.org/1999/xlink" xmlns:dc="http://purl.org/dc/elements/1.1/" xmlns:cc="http://creativecommons.org/ns#" xmlns:rdf="http://www.w3.org/1999/02/22-rdf-syntax-ns#" xmlns:inkscape="http://www.inkscape.org/namespaces/inkscape" width="64" height="64" style="">
                                    <title>my vector image</title>
                                    <!-- Created with Vector Paint - http://www.vectorpaint.yaks.com/ https://chrome.google.com/webstore/detail/hnbpdiengicdefcjecjbnjnoifekhgdo -->
                                <g style="" class="currentLayer"><title>Layer 1</title><path fill="#FFFFFF" stroke="#000000" stroke-linejoin="round" stroke-dashoffset="" fill-rule="nonzero" marker-start="" marker-mid="" marker-end="" id="svg_1" d="M31.997107700960306,14.960880691340467 C33.774863769912905,14.962327197499 35.47306200014421,15.270433009287103 37.08157684854138,15.785389201758964 L35.808651428947776,17.98697157519154 L44.84497540189856,17.98697157519154 L42.58553278212133,14.07272590994235 L40.32753666850141,10.161373257010506 L39.13850860610827,12.222644533056506 C36.91088912181833,11.408261565748631 34.509688898495384,10.952612125780565 31.998554207117557,10.952612125780565 C20.439523493516337,10.952612125780565 11.070503104078501,20.321632515218283 11.070503104078501,31.88066322881997 C11.070503104078501,36.67872415699109 12.702162051011921,41.086228422332745 15.417254110758353,44.617149955545266 L18.59956765974103,42.1740010536213 C16.4037713109418,39.32004440264728 15.083111188111989,35.758746240103406 15.075878657320715,31.88210973497857 C15.09179022506667,22.536233444078928 22.652677916218025,14.975345752926824 31.997107700960306,14.960880691340467 zM48.579854303478164,19.148516020570415 L45.397540754495665,21.59311142865289 C47.59333710329279,24.44562157346867 48.91399722612082,28.00547322985382 48.91978325075698,31.883556241137228 C48.90387168301338,41.22798602587834 41.342983991859946,48.788873717030405 31.998554207117557,48.80478528477525 C30.342304655488384,48.80189227245795 28.758380411791435,48.53284212695305 27.248227982181,48.08297871161959 L28.44593508152441,46.01158189246344 L19.409611108571394,46.01158189246344 L21.667607222191368,49.922934545395194 L23.927049841970543,53.838626716803105 L25.186956706136698,51.65295591111504 C27.32344630242929,52.39646007665018 29.61037253922209,52.81160734417684 31.998554207117557,52.81305385033526 C43.55903142687969,52.810160838018035 52.92660531015664,43.44114044858019 52.929498322476846,31.88210973497857 C52.92660531015664,27.08404880680733 51.29349985706605,22.677991047624364 48.579854303478164,19.148516020570415 z" style="color: rgb(34, 34, 34);" class="" stroke-opacity="1"/></g></svg>